<?xml version="1.0" encoding="utf-8"?>
<!-- Generator: Adobe Illustrator 21.1.0, SVG Export Plug-In . SVG Version: 6.00 Build 0)  -->
<svg version="1.1" id="Layer_1" xmlns="http://www.w3.org/2000/svg" xmlns:xlink="http://www.w3.org/1999/xlink" x="0px" y="0px"
	 width="460px" height="100px" viewBox="0 0 460 100" style="enable-background:new 0 0 460 100;" xml:space="preserve">
<style type="text/css">
	.st0{fill:#74AADB;}
	.st1{fill:#4E4E4E;}
	.st2{fill:#FFFFFF;}
	.st3{enable-background:new    ;}
	.st4{fill:#4F4F4F;}
</style>
<g>
	<circle class="st0" cx="50" cy="50" r="50"/>
	<g>
		<path class="st1" d="M110.7,64.9c2.6,1.7,6.3,2.9,10.3,2.9c5.9,0,9.4-3.1,9.4-7.6c0-4.1-2.4-6.6-8.4-8.8
			c-7.3-2.7-11.8-6.5-11.8-12.8c0-7,5.8-12.2,14.5-12.2c4.5,0,7.9,1.1,9.8,2.2l-1.6,4.7c-1.4-0.9-4.4-2.1-8.4-2.1
			c-6.1,0-8.4,3.7-8.4,6.7c0,4.2,2.7,6.3,8.9,8.6c7.6,2.9,11.4,6.6,11.4,13.2c0,6.9-5.1,13-15.6,13c-4.3,0-9-1.3-11.4-2.9
			L110.7,64.9z"/>
		<path class="st1" d="M150.9,32v7.7h8.4v4.5h-8.4v17.4c0,4,1.1,6.3,4.4,6.3c1.6,0,2.5-0.1,3.4-0.4L159,72c-1.1,0.4-2.9,0.8-5.2,0.8
			c-2.7,0-4.9-0.9-6.3-2.5c-1.6-1.8-2.3-4.7-2.3-8.4V44.2h-5v-4.5h5v-6L150.9,32z"/>
		<path class="st1" d="M192.7,63.1c0,3.4,0.1,6.3,0.3,8.8h-5.2l-0.3-5.3h-0.1c-1.5,2.6-4.9,6-10.6,6c-5.1,0-11.1-2.9-11.1-14.1V39.7
			h5.9v17.8c0,6.1,1.9,10.3,7.2,10.3c3.9,0,6.6-2.7,7.7-5.4c0.3-0.8,0.5-1.9,0.5-3V39.7h5.9v23.4H192.7z"/>
		<path class="st1" d="M230.2,24.7v38.9c0,2.9,0.1,6.1,0.3,8.3h-5.2l-0.3-5.6h-0.2c-1.7,3.6-5.6,6.3-10.8,6.3
			c-7.8,0-13.8-6.6-13.8-16.4c-0.1-10.7,6.6-17.2,14.4-17.2c5,0,8.2,2.3,9.7,4.9h0.1V24.7H230.2z M224.4,52.8c0-0.7-0.1-1.7-0.3-2.5
			c-0.9-3.7-4.1-6.7-8.4-6.7c-6.1,0-9.6,5.3-9.6,12.4c0,6.5,3.3,11.9,9.5,11.9c3.9,0,7.5-2.7,8.6-7c0.2-0.8,0.3-1.6,0.3-2.5v-5.6
			C224.6,52.8,224.4,52.8,224.4,52.8z"/>
		<path class="st1" d="M246.4,30.7c0,2-1.4,3.6-3.7,3.6c-2.1,0-3.5-1.6-3.5-3.6s1.5-3.7,3.7-3.7C245,27,246.4,28.6,246.4,30.7z
			 M239.9,71.9V39.7h5.9v32.2H239.9z"/>
		<path class="st1" d="M284.7,55.6c0,11.9-8.3,17.1-16,17.1c-8.6,0-15.4-6.4-15.4-16.6c0-10.7,7.1-17,16-17
			C278.4,39.1,284.7,45.8,284.7,55.6z M259.2,55.9c0,7,4,12.4,9.7,12.4c5.6,0,9.8-5.3,9.8-12.5c0-5.5-2.7-12.3-9.6-12.3
			C262.2,43.5,259.2,49.8,259.2,55.9z"/>
	</g>
	<g>
		<path class="st2" d="M67.1,66h5.4v4.2h-8.3L50.6,49.6h-7.3v16.3h7.2v4.2h-18v-4.2h6.1V29.8L32.4,29v-4c2.3,0.5,4.4,0.9,6.9,0.9
			c3.8,0,7.8-0.9,11.6-0.9c7.5,0,14.4,3.4,14.4,11.7c0,6.4-3.8,10.5-9.8,12.2L67.1,66z M43.3,45.6l3.9,0.1
			c9.6,0.2,13.3-3.5,13.3-8.4c0-5.7-4.1-8-9.4-8c-2.5,0-5,0.2-7.8,0.5C43.3,29.8,43.3,45.6,43.3,45.6z"/>
	</g>
</g>
<g class="st3">
	<path class="st4" d="M306.1,49.7c0-14,7.6-22.8,18.8-22.8c5.2,0,9.2,2.5,11.5,5.3l-1.8,2.1c-2.4-2.7-5.6-4.6-9.6-4.6
		c-9.7,0-15.7,7.7-15.7,20c0,12.3,5.9,20.2,15.4,20.2c4.6,0,8-1.9,11.2-5.4l1.8,1.9c-3.4,3.9-7.4,6.3-13.1,6.3
		C313.7,72.7,306.1,63.8,306.1,49.7z"/>
	<path class="st4" d="M346.4,67.6V23.7h2.9V68c0,1.4,0.6,2.1,1.4,2.1c0.3,0,0.5,0,1.2-0.1l0.5,2.4c-0.6,0.2-1.2,0.3-2.1,0.3
		C347.7,72.7,346.4,71.1,346.4,67.6z"/>
	<path class="st4" d="M359.6,55.9c0-10.8,6.7-17,14.4-17c7.8,0,14.5,6.2,14.5,17c0,10.7-6.7,16.8-14.5,16.8
		C366.3,72.7,359.6,66.5,359.6,55.9z M385.4,55.9c0-8.5-4.9-14.3-11.4-14.3s-11.3,5.8-11.3,14.3c0,8.4,4.8,14.2,11.3,14.2
		S385.4,64.3,385.4,55.9z"/>
	<path class="st4" d="M397.7,60.4V39.7h2.9V60c0,6.8,2.1,10,7.3,10c3.8,0,6.6-2,10.4-6.6V39.7h2.9v32.2h-2.5l-0.3-5.4h-0.1
		c-3.1,3.7-6.5,6.2-10.9,6.2C400.7,72.7,397.7,68.7,397.7,60.4z"/>
	<path class="st4" d="M430.9,55.9c0-10.4,6.6-17,14.3-17c3.9,0,6.5,1.5,9.7,4l-0.1-5.9V23.7h2.9v48.2h-2.5l-0.3-4.2h-0.2
		c-2.6,2.6-6.2,5-10.5,5C436.1,72.7,430.9,66.7,430.9,55.9z M454.7,64.8V45.7c-3.4-3-6.2-4.2-9.4-4.2c-6.4,0-11.3,6.2-11.3,14.3
		c0,8.5,3.8,14.2,10.6,14.2C448.2,70.1,451.3,68.2,454.7,64.8z"/>
</g>
</svg>
